<mxfile host="app.diagrams.net" modified="2022-05-26T04:02:18.201Z" agent="5.0 (Windows NT 10.0; Win64; x64) AppleWebKit/537.36 (KHTML, like Gecko) Chrome/92.0.4515.131 Safari/537.36" etag="Gr7qSFrhFsn7pRjp9QX5" version="18.1.2" type="github">
  <diagram id="uYlvX6zX16NU5SYIHV0C" name="Page-1">
    <mxGraphModel dx="1422" dy="793" grid="0" gridSize="10" guides="1" tooltips="1" connect="1" arrows="1" fold="1" page="1" pageScale="1" pageWidth="827" pageHeight="1169" math="0" shadow="0">
      <root>
        <mxCell id="0" />
        <mxCell id="1" parent="0" />
        <mxCell id="F_s4CBOXQ1cMMhHhpeoI-1" value="&lt;font style=&quot;font-size: 18px;&quot;&gt;Visa Applicant&lt;/font&gt;" style="shape=umlActor;verticalLabelPosition=bottom;verticalAlign=top;html=1;" vertex="1" parent="1">
          <mxGeometry x="380" y="164" width="51" height="100" as="geometry" />
        </mxCell>
        <mxCell id="F_s4CBOXQ1cMMhHhpeoI-5" value="&lt;font size=&quot;1&quot;&gt;Create a Visa Applicant Account&lt;/font&gt;" style="ellipse;whiteSpace=wrap;html=1;fontSize=18;fillColor=#fff2cc;strokeColor=#d6b656;" vertex="1" parent="1">
          <mxGeometry x="490" y="34" width="140" height="70" as="geometry" />
        </mxCell>
        <mxCell id="F_s4CBOXQ1cMMhHhpeoI-6" value="&lt;font size=&quot;1&quot;&gt;Upload Supporting Document&lt;/font&gt;" style="ellipse;whiteSpace=wrap;html=1;fontSize=18;fillColor=#fff2cc;strokeColor=#d6b656;" vertex="1" parent="1">
          <mxGeometry x="160" y="234" width="140" height="70" as="geometry" />
        </mxCell>
        <mxCell id="F_s4CBOXQ1cMMhHhpeoI-7" value="&lt;font size=&quot;1&quot;&gt;Cancel Visa Application&lt;/font&gt;" style="ellipse;whiteSpace=wrap;html=1;fontSize=18;fillColor=#fff2cc;strokeColor=#d6b656;" vertex="1" parent="1">
          <mxGeometry x="520" y="274" width="140" height="70" as="geometry" />
        </mxCell>
        <mxCell id="F_s4CBOXQ1cMMhHhpeoI-8" value="&lt;font size=&quot;1&quot;&gt;Mail Application From Post Office&lt;/font&gt;" style="ellipse;whiteSpace=wrap;html=1;fontSize=18;fillColor=#fff2cc;strokeColor=#d6b656;" vertex="1" parent="1">
          <mxGeometry x="520" y="154" width="140" height="70" as="geometry" />
        </mxCell>
        <mxCell id="F_s4CBOXQ1cMMhHhpeoI-9" value="&lt;font size=&quot;1&quot;&gt;Submit Online Application&lt;/font&gt;" style="ellipse;whiteSpace=wrap;html=1;fontSize=18;fillColor=#fff2cc;strokeColor=#d6b656;" vertex="1" parent="1">
          <mxGeometry x="150" y="94" width="140" height="70" as="geometry" />
        </mxCell>
        <mxCell id="F_s4CBOXQ1cMMhHhpeoI-10" value="&lt;font size=&quot;1&quot;&gt;View Progess Status&lt;/font&gt;" style="ellipse;whiteSpace=wrap;html=1;fontSize=18;fillColor=#fff2cc;strokeColor=#d6b656;" vertex="1" parent="1">
          <mxGeometry x="240" y="4" width="140" height="70" as="geometry" />
        </mxCell>
        <mxCell id="F_s4CBOXQ1cMMhHhpeoI-11" value="" style="endArrow=none;html=1;rounded=0;fontSize=17;entryX=0;entryY=0.5;entryDx=0;entryDy=0;" edge="1" parent="1" target="F_s4CBOXQ1cMMhHhpeoI-5">
          <mxGeometry width="50" height="50" relative="1" as="geometry">
            <mxPoint x="440" y="134" as="sourcePoint" />
            <mxPoint x="450" y="84" as="targetPoint" />
          </mxGeometry>
        </mxCell>
        <mxCell id="F_s4CBOXQ1cMMhHhpeoI-12" value="" style="endArrow=none;html=1;rounded=0;fontSize=17;entryX=-0.021;entryY=0.6;entryDx=0;entryDy=0;entryPerimeter=0;" edge="1" parent="1" target="F_s4CBOXQ1cMMhHhpeoI-8">
          <mxGeometry width="50" height="50" relative="1" as="geometry">
            <mxPoint x="460" y="204" as="sourcePoint" />
            <mxPoint x="530" y="344" as="targetPoint" />
          </mxGeometry>
        </mxCell>
        <mxCell id="F_s4CBOXQ1cMMhHhpeoI-13" value="" style="endArrow=none;html=1;rounded=0;fontSize=17;entryX=0;entryY=0.5;entryDx=0;entryDy=0;" edge="1" parent="1" target="F_s4CBOXQ1cMMhHhpeoI-7">
          <mxGeometry width="50" height="50" relative="1" as="geometry">
            <mxPoint x="480" y="294" as="sourcePoint" />
            <mxPoint x="520" y="314" as="targetPoint" />
          </mxGeometry>
        </mxCell>
        <mxCell id="F_s4CBOXQ1cMMhHhpeoI-14" value="" style="endArrow=none;html=1;rounded=0;fontSize=17;exitX=1;exitY=0.5;exitDx=0;exitDy=0;" edge="1" parent="1" source="F_s4CBOXQ1cMMhHhpeoI-9">
          <mxGeometry width="50" height="50" relative="1" as="geometry">
            <mxPoint x="380" y="264" as="sourcePoint" />
            <mxPoint x="370" y="184" as="targetPoint" />
          </mxGeometry>
        </mxCell>
        <mxCell id="F_s4CBOXQ1cMMhHhpeoI-15" value="&amp;lt;&amp;lt;Include&amp;gt;&amp;gt;" style="html=1;verticalAlign=bottom;endArrow=open;dashed=1;endSize=8;rounded=0;fontSize=17;entryX=0;entryY=0.5;entryDx=0;entryDy=0;exitX=0;exitY=0.5;exitDx=0;exitDy=0;" edge="1" parent="1" source="F_s4CBOXQ1cMMhHhpeoI-9" target="F_s4CBOXQ1cMMhHhpeoI-6">
          <mxGeometry relative="1" as="geometry">
            <mxPoint x="170" y="184" as="sourcePoint" />
            <mxPoint x="90" y="184" as="targetPoint" />
            <Array as="points">
              <mxPoint x="130" y="129" />
              <mxPoint x="130" y="269" />
            </Array>
          </mxGeometry>
        </mxCell>
        <mxCell id="F_s4CBOXQ1cMMhHhpeoI-16" value="" style="endArrow=none;html=1;rounded=0;fontSize=17;" edge="1" parent="1" source="F_s4CBOXQ1cMMhHhpeoI-10">
          <mxGeometry width="50" height="50" relative="1" as="geometry">
            <mxPoint x="180" y="394" as="sourcePoint" />
            <mxPoint x="380" y="134" as="targetPoint" />
          </mxGeometry>
        </mxCell>
        <mxCell id="F_s4CBOXQ1cMMhHhpeoI-17" value="&lt;font style=&quot;font-size: 18px;&quot;&gt;Visa Applicant&lt;/font&gt;" style="shape=umlActor;verticalLabelPosition=bottom;verticalAlign=top;html=1;" vertex="1" parent="1">
          <mxGeometry x="255.96" y="544" width="51" height="100" as="geometry" />
        </mxCell>
        <mxCell id="F_s4CBOXQ1cMMhHhpeoI-18" value="&lt;font style=&quot;font-size: 18px;&quot;&gt;Medical Examiner&lt;/font&gt;" style="shape=umlActor;verticalLabelPosition=bottom;verticalAlign=top;html=1;" vertex="1" parent="1">
          <mxGeometry x="561" y="547" width="51" height="100" as="geometry" />
        </mxCell>
        <mxCell id="F_s4CBOXQ1cMMhHhpeoI-20" value="&lt;font size=&quot;1&quot;&gt;Pay Medical &lt;br&gt;Examination Fee&lt;/font&gt;" style="ellipse;whiteSpace=wrap;html=1;fontSize=18;fillColor=#fff2cc;strokeColor=#d6b656;" vertex="1" parent="1">
          <mxGeometry x="81.92" y="522" width="140" height="70" as="geometry" />
        </mxCell>
        <mxCell id="F_s4CBOXQ1cMMhHhpeoI-21" value="&lt;font size=&quot;1&quot;&gt;Schedule Medical Examination&lt;/font&gt;" style="ellipse;whiteSpace=wrap;html=1;fontSize=18;fillColor=#fff2cc;strokeColor=#d6b656;" vertex="1" parent="1">
          <mxGeometry x="368" y="550" width="140" height="70" as="geometry" />
        </mxCell>
        <mxCell id="F_s4CBOXQ1cMMhHhpeoI-22" value="&lt;font size=&quot;1&quot;&gt;View Payment Receipt&lt;/font&gt;" style="ellipse;whiteSpace=wrap;html=1;fontSize=18;fillColor=#fff2cc;strokeColor=#d6b656;" vertex="1" parent="1">
          <mxGeometry x="78" y="664" width="140" height="70" as="geometry" />
        </mxCell>
        <mxCell id="F_s4CBOXQ1cMMhHhpeoI-23" value="&lt;font size=&quot;1&quot;&gt;Submit Medical Examiantion Results&lt;/font&gt;" style="ellipse;whiteSpace=wrap;html=1;fontSize=18;fillColor=#fff2cc;strokeColor=#d6b656;" vertex="1" parent="1">
          <mxGeometry x="670" y="512" width="140" height="70" as="geometry" />
        </mxCell>
        <mxCell id="F_s4CBOXQ1cMMhHhpeoI-25" value="" style="endArrow=none;html=1;rounded=0;fontSize=17;entryX=0;entryY=0.5;entryDx=0;entryDy=0;" edge="1" parent="1" target="F_s4CBOXQ1cMMhHhpeoI-21">
          <mxGeometry width="50" height="50" relative="1" as="geometry">
            <mxPoint x="313" y="587" as="sourcePoint" />
            <mxPoint x="344" y="507" as="targetPoint" />
          </mxGeometry>
        </mxCell>
        <mxCell id="F_s4CBOXQ1cMMhHhpeoI-26" value="" style="endArrow=none;html=1;rounded=0;fontSize=17;exitX=1;exitY=0.5;exitDx=0;exitDy=0;" edge="1" parent="1" source="F_s4CBOXQ1cMMhHhpeoI-21">
          <mxGeometry width="50" height="50" relative="1" as="geometry">
            <mxPoint x="469" y="539" as="sourcePoint" />
            <mxPoint x="554" y="585" as="targetPoint" />
          </mxGeometry>
        </mxCell>
        <mxCell id="F_s4CBOXQ1cMMhHhpeoI-28" value="" style="endArrow=none;html=1;rounded=0;fontSize=17;exitX=1;exitY=0.5;exitDx=0;exitDy=0;" edge="1" parent="1" source="F_s4CBOXQ1cMMhHhpeoI-20">
          <mxGeometry width="50" height="50" relative="1" as="geometry">
            <mxPoint x="200.96" y="540" as="sourcePoint" />
            <mxPoint x="250.96" y="571" as="targetPoint" />
          </mxGeometry>
        </mxCell>
        <mxCell id="F_s4CBOXQ1cMMhHhpeoI-29" value="&amp;lt;&amp;lt;extend&amp;gt;&amp;gt;" style="html=1;verticalAlign=bottom;endArrow=open;dashed=1;endSize=8;rounded=0;fontSize=17;entryX=0;entryY=0.5;entryDx=0;entryDy=0;exitX=-0.014;exitY=0.6;exitDx=0;exitDy=0;exitPerimeter=0;" edge="1" parent="1">
          <mxGeometry relative="1" as="geometry">
            <mxPoint x="76.03999999999996" y="705" as="sourcePoint" />
            <mxPoint x="81.92000000000007" y="556" as="targetPoint" />
            <Array as="points">
              <mxPoint x="59" y="705" />
              <mxPoint x="59" y="555" />
            </Array>
          </mxGeometry>
        </mxCell>
        <mxCell id="F_s4CBOXQ1cMMhHhpeoI-31" value="" style="endArrow=none;html=1;rounded=0;fontSize=17;entryX=0;entryY=0.5;entryDx=0;entryDy=0;" edge="1" parent="1" target="F_s4CBOXQ1cMMhHhpeoI-23">
          <mxGeometry width="50" height="50" relative="1" as="geometry">
            <mxPoint x="624" y="575" as="sourcePoint" />
            <mxPoint x="645" y="485" as="targetPoint" />
          </mxGeometry>
        </mxCell>
      </root>
    </mxGraphModel>
  </diagram>
</mxfile>
